<?xml version="1.0" encoding="iso-8859-1"?>
<!-- Generator: Adobe Illustrator 16.0.0, SVG Export Plug-In . SVG Version: 6.00 Build 0)  -->
<!DOCTYPE svg PUBLIC "-//W3C//DTD SVG 1.1//EN" "http://www.w3.org/Graphics/SVG/1.1/DTD/svg11.dtd">
<svg version="1.1" id="Capa_1" xmlns="http://www.w3.org/2000/svg" xmlns:xlink="http://www.w3.org/1999/xlink" x="0px" y="0px"
	 width="480px" height="480px" viewBox="0 0 480 480" style="enable-background:new 0 0 480 480;" xml:space="preserve">
<g>
	<path d="M240,0C107.452,0,0,107.452,0,240c0,132.549,107.452,240,240,240c132.549,0,240-107.451,240-240
		C480,107.452,372.549,0,240,0z M375.795,320c4.291-20.227,6.998-41.695,7.879-64h63.725c-1.67,22.098-6.812,43.557-15.342,64
		H375.795z M104.205,160c-4.29,20.227-6.998,41.696-7.879,64H32.604c1.668-22.097,6.811-43.557,15.339-64H104.205z M343.018,160
		c4.809,20.481,7.699,41.927,8.641,64H256v-64H343.018z M256,128V34.331c7.295,2.123,14.521,5.685,21.613,10.685
		c13.291,9.37,26.006,23.804,36.771,41.743c7.439,12.401,13.875,26.208,19.248,41.242L256,128L256,128z M165.616,86.758
		c10.764-17.939,23.478-32.374,36.77-41.743c7.091-5,14.319-8.562,21.614-10.685V128h-77.632
		C151.741,112.967,158.176,99.16,165.616,86.758z M224,160v64h-95.657c0.94-22.073,3.833-43.519,8.639-64H224z M47.944,320
		c-8.528-20.443-13.671-41.902-15.339-64h63.722c0.881,22.305,3.589,43.773,7.879,64H47.944z M128.343,256H224v64h-87.018
		C132.176,299.52,129.283,278.073,128.343,256z M224,352v93.67c-7.294-2.123-14.522-5.686-21.614-10.685
		c-13.292-9.37-26.007-23.807-36.77-41.743c-7.441-12.402-13.875-26.209-19.249-41.242H224L224,352z M314.385,393.242
		c-10.766,17.938-23.48,32.373-36.771,41.743c-7.092,4.999-14.318,8.562-21.613,10.685V352h77.633
		C328.26,367.033,321.824,380.84,314.385,393.242z M256,320v-64h95.656c-0.939,22.073-3.832,43.52-8.641,64H256z M383.674,224
		c-0.881-22.304-3.588-43.773-7.879-64h56.262c8.529,20.443,13.672,41.903,15.342,64H383.674z M415.328,128h-47.949
		c-9.318-29.381-22.188-55.147-37.658-75.714c21.27,10.17,40.529,23.808,57.357,40.636C397.818,103.661,407.26,115.391,415.328,128z
		 M92.922,92.922c16.829-16.829,36.09-30.466,57.357-40.636C134.808,72.853,121.941,98.619,112.621,128H64.672
		C72.741,115.391,82.183,103.661,92.922,92.922z M64.672,352h47.949c9.32,29.381,22.188,55.147,37.659,75.715
		c-21.268-10.17-40.529-23.808-57.357-40.637C82.183,376.339,72.741,364.609,64.672,352z M387.078,387.078
		c-16.828,16.829-36.09,30.467-57.357,40.637c15.473-20.565,28.34-46.334,37.658-75.715h47.949
		C407.26,364.609,397.818,376.339,387.078,387.078z"/>
</g>
<g>
</g>
<g>
</g>
<g>
</g>
<g>
</g>
<g>
</g>
<g>
</g>
<g>
</g>
<g>
</g>
<g>
</g>
<g>
</g>
<g>
</g>
<g>
</g>
<g>
</g>
<g>
</g>
<g>
</g>
</svg>
