<?xml version="1.0" encoding="iso-8859-1"?>
<!-- Generator: Adobe Illustrator 16.0.0, SVG Export Plug-In . SVG Version: 6.00 Build 0)  -->
<!DOCTYPE svg PUBLIC "-//W3C//DTD SVG 1.1//EN" "http://www.w3.org/Graphics/SVG/1.1/DTD/svg11.dtd">
<svg version="1.1" id="Capa_1" xmlns="http://www.w3.org/2000/svg" xmlns:xlink="http://www.w3.org/1999/xlink" x="0px" y="0px"
	 width="512px" height="512px" viewBox="0 0 512 512" style="enable-background:new 0 0 512 512;" xml:space="preserve">
<g>
	<path d="M426,0H86C38.7,0,0,38.7,0,86v340c0,47.3,38.7,86,86,86h340c47.301,0,86-38.7,86-86V86C512,38.7,473.301,0,426,0z M256,160
		c-17.645,0-32,14.355-32,32v128c0,52.936-43.065,96-96,96s-96-43.064-96-96v-64h64v64c0,17.645,14.355,32,32,32s32-14.355,32-32
		V192c0-52.935,43.065-96,96-96c52.936,0,96,43.065,96,89v31l-41,12l-23-12v-31C288,174.355,273.645,160,256,160z M480,320
		c0,52.936-43.064,96-96,96s-96-43.064-96-103v-62l23,12l41-12v62c0,24.645,14.355,39,32,39s32-14.355,32-32v-64h64V320z"/>
</g>
<g>
</g>
<g>
</g>
<g>
</g>
<g>
</g>
<g>
</g>
<g>
</g>
<g>
</g>
<g>
</g>
<g>
</g>
<g>
</g>
<g>
</g>
<g>
</g>
<g>
</g>
<g>
</g>
<g>
</g>
</svg>
